<?xml version="1.0" encoding="utf-8"?>
<!-- Generator: Adobe InDesign 3.0 SVG Export Plug-in, SVG Library version: 6.0 build 78 -->
<!DOCTYPE svg PUBLIC "-//W3C//DTD SVG 1.0//EN"    "http://www.w3.org/TR/2001/REC-SVG-20010904/DTD/svg10.dtd" [
	<!ENTITY ns_svg "http://www.w3.org/2000/svg">
	<!ENTITY ns_xlink "http://www.w3.org/1999/xlink">
]>
<svg  xmlns="&ns_svg;" xmlns:xlink="&ns_xlink;" width="1190.551pt" height="841.89pt" xml:space="preserve">
	<clipPath id="clp1" fill="none">
		<path shape-rendering="crispEdges" stroke="#000000" d="M0,0h1190.551v841.89H0z"/>
	</clipPath>
	<g clip-path="url(#clp1)" fill="none">
		<g transform="matrix(1 0 0 1 595.2756 420.9449)">
			<path fill="#235674" d="M-595.276-420.945v841.89H595.276v-841.89H-595.276z"/>
		</g>
		<g transform="matrix(1.0676 0 0 1.0676 281.8264 163.7065)">
			<path fill="#FFFFFF" d="M794.576,570.656V-97.578L708.367-31.63c0,0,0.136,145.465,0.136,145.465
				c-25.797-23.445-87.613-35.939-137.4-35.166c-43.536,0.676-97.548,15.715-136.64,53.533
				c14.739,26.394,24.663,56.984,24.663,96.233c0,0,0,4.037,0,4.037c6.82-11.876,39.411-81.81,136.72-81.423
				c37.504,0.149,91.048,16.245,112.657,48.737c0,0,0,268.108,0,268.108c-4.798,9.627-46.528,39.805-108.162,40.162
				C502.5,508.624,438.154,457.454,438.154,341c0,0,0.001,0,0.001,0s0-0.018,0-0.018c0.002-5.816,0-14.945,0-14.945
				s0-78.263,0-78.263c0-53.505-13.695-95.059-41.081-124.677c-27.387-29.618-66.068-44.428-116.012-44.428
				c-27.693,0-54.637,6.175-80.816,18.509c-26.195,12.348-44.092,27.692-53.72,46.047c-27.693-43.037-76.14-64.555-145.355-64.555
				c-49.67,0-91.041,21.518-124.144,64.555c0,0-28.442-55.752-28.442-55.752h-55.982v483.183h86.074c0,0,0-357.007,0-357.007
				c8.101-15.681,21.84-30.046,41.202-43.067c19.365-13.021,37.612-19.532,54.728-19.532c29.42,0,53.063,6.846,70.928,20.51
				c17.866,13.678,26.806,32.384,26.806,56.104c0,0,0,342.993,0,342.993h86.074c0,0,0-356.962,0-356.962
				c6.601-16.215,18.905-30.703,36.924-43.48c18.018-12.776,37.382-19.164,58.104-19.164c65.747,0,98.637,38.008,98.637,114.026
				c0,0,0,74.705,0,74.705c-0.002,0.509-0.134,0.955-0.134,1.464c0,72.197,18.738,129.936,56.241,173.247
				c37.506,43.313,86.41,64.969,146.716,64.969c56.699,0,118.805-7.289,153.599-44.412c0,0,0,35.609,0,35.609H794.576z"/>
		</g>
	</g>
</svg>
