<?xml version="1.0" encoding="utf-8"?>
<!-- Generator: Adobe InDesign 3.0 SVG Export Plug-in, SVG Library version: 6.0 build 78 -->
<!DOCTYPE svg PUBLIC "-//W3C//DTD SVG 1.0//EN"    "http://www.w3.org/TR/2001/REC-SVG-20010904/DTD/svg10.dtd" [
	<!ENTITY ns_svg "http://www.w3.org/2000/svg">
	<!ENTITY ns_xlink "http://www.w3.org/1999/xlink">
]>
<svg  xmlns="&ns_svg;" xmlns:xlink="&ns_xlink;" width="1190.551pt" height="841.89pt" xml:space="preserve">
	<clipPath id="clp1" fill="none">
		<path shape-rendering="crispEdges" stroke="#000000" d="M0,0h1190.551v841.89H0z"/>
	</clipPath>
	<g clip-path="url(#clp1)" fill="none">
		<g transform="matrix(1 0 0 1 595.2756 420.9449)">
			<path fill="#235674" d="M-595.276-420.945v841.89H595.276v-841.89H-595.276z"/>
		</g>
		<g transform="matrix(1.1194 0 0 1.1194 596.7416 484.1349)">
			<path fill="#B4D365" d="M191.83-56.884c0-14.427-3.338-25.379-10.012-32.856c-6.677-7.477-16.005-11.218-27.988-11.218
				c-8.045,0-14.904,2.84-20.578,8.515c0,0,0-6.944,0-6.944h-15.037V18.443l15.037-10.937c0,0,0-26.944,0-26.944
				c1.157,1.634,3.77,3.079,7.845,4.342c4.071,1.262,7.894,1.894,11.471,1.894c12.719,0,22.444-4.068,29.17-12.204
				C188.464-33.543,191.83-44.035,191.83-56.884z M176.12-57.439c0,21.111-9.318,31.667-27.946,31.667
				c-2.897,0-5.871-0.645-8.921-1.939c-3.054-1.291-5.053-2.651-6-4.079c0,0,0-49.398,0-49.398c1.789-1.844,4.208-3.507,7.263-4.987
				c3.051-1.477,5.632-2.216,7.736-2.216c9.735,0,16.815,2.483,21.237,7.442C173.907-75.986,176.12-68.149,176.12-57.439z"/>
		</g>
		<g transform="matrix(1.1194 0 0 1.1194 598.328 484.1349)">
			<path fill="#B4D365" d="M224.316-13.203c0,0,0-13.466,0-13.466c-4.215,0-7.624-1.301-10.23-3.903
				c-2.609-2.602-3.91-6.165-3.91-10.689c0,0,0-89.565,0-89.565l-15.037,10.937c0,0,0,81.195,0,81.195
				C195.139-21.7,204.863-13.203,224.316-13.203C224.316-13.203,224.316-13.203,224.316-13.203z"/>
		</g>
		<g transform="matrix(1.1194 0 0 1.1194 598.328 484.1349)">
			<path fill="#B4D365" d="M299.76-13.203c0,0,0-7.406,0-7.406c-4.489-2.479-6.733-7.442-6.733-14.883c0,0,0-30.397,0-30.397
				c0-12.19-2.767-21.08-8.301-26.677c-5.534-5.593-14.41-8.392-26.628-8.392c-4.566,0-9.353,0.838-14.36,2.511
				c-5.008,1.676-8.928,3.682-11.759,6.018c0,0,6.281,12.569,6.281,12.569c5.022-5.085,12.193-7.631,21.515-7.631
				c12.141,0,18.215,6.81,18.215,20.424c-3.987-1.347-7.554-2.02-10.696-2.02c-11.59,0-21.122,2.967-28.595,8.893
				c-7.473,5.93-11.208,13.189-11.208,21.778c0,7.168,2.423,13.161,7.277,17.983c4.85,4.822,10.58,7.231,17.191,7.231
				c12.323,0,21.476-3.738,27.455-11.222c1.325,4.005,3.51,6.877,6.558,8.616C289.015-14.073,293.612-13.203,299.76-13.203z
				 M277.989-35.871c-5.807,7.182-12.474,10.773-20.007,10.773c-10.303,0-15.455-4.384-15.455-13.154c0-5.302,2.378-9.9,7.14-13.785
				c4.759-3.886,10.903-5.828,18.435-5.828c1.883,0,5.18,0.449,9.886,1.347C277.989-56.52,277.989-35.871,277.989-35.871z"/>
		</g>
		<g transform="matrix(1.1194 0 0 1.1194 597.5348 484.1349)">
			<path fill="#B4D365" d="M358.965-98.167c-5.127-1.859-9.882-2.791-14.266-2.791c-13.631,0-24.369,4.082-32.214,12.242
				c-7.845,8.164-11.766,18.986-11.766,32.467c0,13.217,3.749,23.696,11.254,31.436c7.505,7.743,17.001,11.611,28.493,11.611
				c11.857,0,21.799-2.616,29.829-7.855c0,0-5.906-12.569-5.906-12.569c-6.828,5.239-13.6,7.855-20.319,7.855
				c-8.662,0-15.437-2.599-20.319-7.796s-7.322-12.758-7.322-22.682c0-9.974,2.409-17.822,7.228-23.549
				c4.818-5.727,11.334-8.592,19.547-8.592c3.759,0,7.585,0.698,11.478,2.09c3.893,1.396,6.607,2.869,8.143,4.419
				c0,0,7.47-10.549,7.47-10.549C367.865-94.394,364.088-96.309,358.965-98.167z"/>
		</g>
		<g transform="matrix(1.1194 0 0 1.1194 597.5348 484.1349)">
			<path fill="#B4D365" d="M445.681-64.785c0-10.794-3.314-19.456-9.942-25.986c-6.838-6.789-16.283-10.187-28.328-10.187
				c-10.363,0-19.33,3.766-26.905,11.295c-8.473,8.427-12.705,19.617-12.705,33.571c0,13.428,4.135,24.117,12.407,32.067
				c7.428,7.217,16.461,10.822,27.105,10.822c7.371,0,14.062-1.094,20.07-3.275c4.794-1.662,8.35-3.64,10.668-5.927
				c0,0-6.334-10.773-6.334-10.773c-5.751,4.938-12.93,7.407-21.528,7.407c-7.547,0-13.722-2.322-18.523-6.968
				c-5.436-5.33-8.153-12.958-8.153-22.882c0,0,60.984,0,60.984,0C445.285-58.413,445.681-61.468,445.681-64.785z M430.868-66.62
				c0,0-46.908,0-46.908,0c0.579-6.098,3.03-11.201,7.357-15.304c4.534-4.31,10.149-6.467,16.847-6.467
				c7.172,0,12.842,2.209,17.008,6.625C428.968-77.715,430.868-72.665,430.868-66.62z"/>
		</g>
		<g transform="matrix(1.1194 0 0 1.1194 597.5348 484.1349)">
			<path fill="#B4D365" d="M474.488-13.203c9.388,0,16.731-2.146,22.027-6.439c5.295-4.292,7.947-10.23,7.947-17.815
				c0-5.793-1.501-10.615-4.499-14.459c-2.998-3.844-7.785-7.27-14.361-10.272c0,0-10.734-4.91-10.734-4.91
				c-6.158-2.795-9.234-6.912-9.234-12.348c0-2.585,1.217-4.72,3.658-6.411s5.443-2.535,9.013-2.535
				c5.983,0,11.937,2.395,17.867,7.182c0,0,4.25-13.905,4.25-13.905c-9.335-3.896-17.071-5.846-23.205-5.846
				c-8.129,0-14.708,1.95-19.744,5.846c-5.036,3.9-7.55,9.325-7.55,16.275c0,2.686,0.431,5.204,1.301,7.547
				c0.87,2.346,2.185,4.559,3.945,6.638c1.76,2.08,3.84,3.935,6.235,5.569c2.392,1.634,7.035,4.029,13.929,7.189
				c8.943,4.012,13.417,8.816,13.417,14.406c0,7.813-4.619,11.716-13.852,11.716c-5.092,0-11.808-2.767-20.15-8.304
				c0,0-5.274,14.231-5.274,14.231C457.286-15.416,465.622-13.203,474.488-13.203C474.488-13.203,474.488-13.203,474.488-13.203z"/>
		</g>
		<g transform="matrix(0.7561 0 -0.6457 0.7561 170.9655 372.9424)">
			<path fill="#B4D365" d="M696.113-21.026v14.27h25.748v-14.27H696.113z"/>
		</g>
		<g transform="matrix(1.539 0 0 1.539 503.3692 529.5212)">
			<path fill="#FFFFFF" d="M84.503-89.718c0,0,0-10.245,0-10.245c-0.851-0.364-1.601-0.732-2.597-1.09
				c-3.57-1.283-8.357-1.925-11.413-1.925c-9.255,0-16.522,2.819-21.95,8.249c0.637,0.638,1.859,2.136,2.699,4.211
				c0.802,1.98,1.877,3.657,1.982,7.505c0.791-2.081,1.278-3.488,2.619-5.083c3.358-3.996,7.329-5.685,13.295-5.959
				c2.616-0.12,7.078,0.439,9.79,1.389C81.58-91.736,83.421-90.752,84.503-89.718z"/>
		</g>
		<g transform="matrix(-0.8401 1.028760e-016 -1.028760e-016 -0.8401 456.4342 345.3766)">
			<path fill="#FFFFFF" d="M-241.361-145.526v25.866l20.52-23.436v-2.43H-241.361z"/>
		</g>
		<g transform="matrix(1.3851 0 0 1.3851 323.1697 512.0684)">
			<path fill="#FFFFFF" d="M262.01-74.594l21.974-25.589H269.93c0,0-43.551,50.593-43.551,50.593
				c-6.298,6.954-13.781,8.866-19.156,8.866c-6.98,0-11.113-2.504-15.047-6.668c-2.694-2.85-4.031-7.005-4.784-11.721
				c0,0-12.607,0-12.607,0c0.974,7.482,3.222,14.035,7.884,18.831c6.048,6.222,13.029,8.334,21.261,9.333
				c8.804,1.069,20.894-2.446,26.404-8.434c0,0,23.656-26.832,23.656-26.832l21.727,34.104h13.091L262.01-74.594z"/>
		</g>
		<g transform="matrix(1.3851 0 0 1.3851 323.1697 512.0684)">
			<path fill="#FFFFFF" d="M135.554-64.907c0,0,50.771,0,50.771,0c0.064-2.238-0.106-4.57-0.106-7.242
				c0-8.694-3.313-15.809-8.649-21.067c-5.507-5.471-13.108-8.208-22.805-8.208c-8.343,0-15.564,3.027-21.662,9.082
				c-1.741,1.729-2.62,4.02-3.916,6.039c0,0,0,41.225,0,41.225c1.23,1.83,2.036,3.941,3.666,5.506
				c5.973,5.8,13.239,8.701,21.797,8.701c5.929,0,11.31-0.883,16.141-2.648c2.887-1.006,5.03-2.203,6.801-3.494
				c-0.582-0.539-1.143-0.94-1.748-1.564c-1.894-1.948-3.044-4.437-4.281-6.864c-4.145,2.692-8.874,4.373-14.579,4.373
				c-6.063,0-11.023-1.854-14.882-5.563C137.737-50.891,135.554-56.982,135.554-64.907z M135.83-73.726
				c0.465-4.902,2.439-9.002,5.921-12.3c3.649-3.466,8.171-5.2,13.562-5.2c5.772,0,11.11,1.37,14.464,4.92
				c3.055,3.255,4.661,7.718,4.661,12.58C174.438-73.726,135.83-73.726,135.83-73.726z"/>
		</g>
		<g transform="matrix(1.3851 0 0 1.3851 319.4191 512.0684)">
			<path fill="#FFFFFF" d="M11.773-93.235c1.657-1.895,3.304-3.133,5.268-4.472c-5.57-3.174-11.555-3.682-13.606-3.715
				c-9.54-0.157-15.084,2.572-19.608,7.862c0,0,0-6.622,0-6.622h-12.126v68.071h12.126c0,0,0-39.02,0-39.02
				c0-3.462,1.595-9.415,4.79-13.347c3.195-3.929,6.929-5.895,11.2-5.895c1.983,0,5.62-0.224,8.453,2.244
				C9.292-89.889,10.433-91.704,11.773-93.235z"/>
		</g>
		<g transform="matrix(1.3851 0 0 1.3851 317.2759 512.0684)">
			<path fill="#FFFFFF" d="M-52.246-30.872c6.862,0,14.349-1.478,19.62-3.656c0,0,0-10.95,0-10.95
				c-6.749,4.028-11.743,4.409-16.707,4.409c-6.98,0-12.438-2.082-16.372-6.246c-3.623-3.833-6.148-9.407-6.436-16.447
				c0,0-0.015,0-0.015,0s0-9.514,0-9.514c0-9.783-2.231-16.921-6.689-21.412c-4.459-4.489-11.319-7.273-24.471-7.233
				c-11.286,0.035-16.409,4.243-18.117,5.148c0.331,0.309,0.813,0.42,1.123,0.756c2.115,2.288,3.525,5.191,4.48,8.49
				c3.504-1.866,8.522-4.075,13.622-4.075c13.977,0,18.778,6.438,18.778,17.462c-3.208-1.102-6.934-1.578-9.465-1.654
				c-10.091-0.301-16.602,1.693-21.621,4.193c0,0,0,11.567,0,11.567c0.892-1.318,7.105-6.802,22.282-6.802
				c1.514-0.007,6.23,0.393,8.804,1.24c0,0,0,0.106,0,0.106c0,0.004-0.002,0.007-0.002,0.011c0,0.004,0.002,0.007,0.002,0.011
				c0,0,0,2.509,0,2.509s0.041,0.048,0.041,0.048c0.486,9.336,2.661,17.033,8.175,22.707
				C-69.165-33.983-61.509-30.872-52.246-30.872z"/>
		</g>
		<g transform="matrix(1.3851 0 0 1.3851 319.0619 512.0684)">
			<path fill="#FFFFFF" d="M-118.939-77.6c0-7.538-1.929-13.392-5.787-17.565c-3.858-4.173-9.308-6.259-16.344-6.259
				c-3.901,0-7.697,0.87-11.385,2.607c-3.69,1.74-6.212,3.901-7.568,6.487c-3.901-6.063-10.727-9.094-20.478-9.094
				c-6.998,0-12.826,3.031-17.489,9.094c0,0-4.007-7.854-4.007-7.854h-7.887v68.071h12.126c0,0,0-50.295,0-50.295
				c1.141-2.209,3.077-4.233,5.805-6.067c2.728-1.835,5.299-2.752,7.71-2.752c4.145,0,7.475,0.965,9.992,2.89
				c2.517,1.927,3.776,4.562,3.776,7.904c0,0,0,48.321,0,48.321h12.126c0,0,0-50.289,0-50.289c0.93-2.284,2.663-4.325,5.202-6.125
				c2.539-1.8,5.266-2.7,8.186-2.7c9.262,0,13.896,5.355,13.896,16.064c0,0,0,24.164,0,24.164s0.037,0,0.037,0
				c0.035,5.693,1.962,10.473,5.832,14.314c3.905,3.875,9.082,5.479,15.046,6.251c18.063,2.34,28.292-8.234,28.986-9.415
				c-2.04-1.629-3.271-5.801-3.271-5.801c-5.225,5.179-14.539,6.042-20.598,6.042c-8.288,0-13.895-4.312-13.895-11.391
				c0,0-0.012,0-0.012,0S-118.939-77.6-118.939-77.6z"/>
		</g>
		<g transform="matrix(1.3851 0 0 1.3851 321.5623 512.0684)">
			<path fill="#FFFFFF" d="M124.486-32.112v-94.2l-12.126,9.381c0,0,0,20.462,0,20.462c-3.634-3.303-12.372-4.954-19.387-4.954
				c-8.412,0-16.514,3.613-22.599,10.838c-5.702,6.769-8.48,14.971-8.84,24.359c0,0-0.008,0.01-0.008,0.01
				c-0.012,7.893-1.892,14.121-5.073,18.686c-3.195,4.584-10.163,6.875-15.787,6.875c-12.057,0-20.642-8.55-20.642-25.652
				c0-7.893,1.639-14.087,4.918-18.585c3.277-4.498,10.225-6.748,15.724-6.748c7.528,0,14.36,3.522,17.579,10.256
				c1.625-4.326,3.829-8.193,6.733-11.505c-5.458-5.629-15.048-8.535-24.312-8.535c-9.219,0-19.208,3.23-24.853,9.684
				c-5.645,6.457-8.466,14.933-8.466,25.432c0,10.839,2.704,19.455,8.117,25.848s15.518,9.587,25.202,9.587
				c9.469,0,19.511-3.163,25.008-9.493c5.482-6.312,8.292-14.929,8.307-25.851c0,0-0.03,0-0.03,0
				c0.13-7.123,2.102-13.092,5.964-17.761c3.994-4.831,10.076-7.249,16.544-7.249c5.284,0,12.857,2.289,15.901,6.866
				c0,0,0,37.771,0,37.771c-0.676,1.356-6.514,5.658-15.268,5.658c-8.715,0-15.559-3.004-19.106-8.702
				c-1.385,4.402-3.687,8.075-6.298,11.503c4.937,4.534,10.826,7.258,18.15,7.258c12.597,0,18.336-2.084,22.522-6.257
				c0,0,0,5.017,0,5.017H124.486z"/>
		</g>
		<g transform="matrix(0.7561 0 0 0.7561 184.7992 405.9902)">
			<path fill="#FFFFFF" d="M604.653-91.102v121.52l22.082-26.561v-77.773L604.653-91.102z"/>
		</g>
		<g transform="matrix(1.539 0 0 1.539 339.4769 529.5212)">
			<path fill="#FFFFFF" d="M-49.227-92.666c2.587,0.93,4.383,1.915,5.438,2.949c0,0,0-10.245,0-10.245
				c-0.83-0.364-1.561-0.732-2.533-1.09c-3.482-1.283-8.152-1.925-11.133-1.925c-9.027,0-16.117,2.819-21.41,8.249
				c2.082,3.387,3.37,7.747,3.626,13.373c0.817-2.562,1.941-4.845,3.494-6.74c3.275-3.996,7.149-5.685,12.969-5.959
				C-56.225-94.175-51.872-93.616-49.227-92.666z"/>
		</g>
	</g>
</svg>
